<?xml version="1.0" standalone="no"?>
<!DOCTYPE svg PUBLIC "-//W3C//DTD SVG 20010904//EN"
 "http://www.w3.org/TR/2001/REC-SVG-20010904/DTD/svg10.dtd">
<svg version="1.0" xmlns="http://www.w3.org/2000/svg"
 width="320.000000pt" height="320.000000pt" viewBox="0 0 320.000000 320.000000"
 preserveAspectRatio="xMidYMid meet">

<g transform="translate(0.000000,320.000000) scale(0.100000,-0.100000)"
fill="#000000" stroke="none">
<path d="M0 1600 l0 -1600 1600 0 1600 0 0 1600 0 1600 -1600 0 -1600 0 0
-1600z m978 573 c-25 -6 -23 -22 14 -104 l32 -71 17 34 c10 18 18 29 18 23 0
-5 -13 -35 -29 -65 l-28 -55 -20 45 c-62 140 -82 179 -99 189 -14 8 -4 10 47
10 36 -1 57 -3 48 -6z m135 -22 c-23 -23 -29 -25 -32 -12 -2 9 -8 22 -13 29
-8 9 -1 12 31 12 l42 0 -28 -29z m177 -73 c25 -56 54 -110 64 -120 19 -18 18
-18 -45 -17 -48 0 -59 2 -41 9 12 5 22 13 22 17 -1 4 -18 44 -39 87 -32 66
-37 84 -28 103 5 13 13 23 16 23 4 0 27 -46 51 -102z m327 91 c40 -15 71 -46
83 -85 24 -73 -49 -145 -145 -143 l-40 1 44 9 c53 10 67 21 81 65 15 46 5 100
-25 130 -19 18 -35 24 -70 24 l-47 0 4 -115 3 -115 -50 0 c-48 0 -49 1 -27 16
20 14 22 23 22 108 0 87 -2 94 -22 104 -32 15 150 16 189 1z m256 -1 c-22 -10
-23 -17 -23 -108 0 -91 1 -98 23 -108 18 -9 8 -11 -53 -11 -61 0 -71 2 -55 11
31 18 35 28 35 111 0 64 -3 80 -20 97 l-20 20 68 -1 c55 0 63 -2 45 -11z m185
-73 c23 -48 47 -83 52 -80 6 4 3 -10 -7 -29 -9 -20 -19 -36 -23 -36 -3 0 -24
37 -45 81 -40 82 -77 132 -105 142 -8 3 8 6 35 6 l51 1 42 -85z m202 72 c-23
-11 -25 -19 -28 -87 -4 -92 1 -114 30 -128 19 -9 9 -11 -52 -11 -61 0 -71 2
-52 11 20 10 22 18 22 97 -1 80 -2 84 -15 61 -22 -39 -17 -15 6 30 20 38 23
40 68 40 44 0 45 -1 21 -13z m-257 -209 c22 -17 21 -18 -33 -17 -46 0 -52 1
-35 11 31 17 35 28 37 98 l2 65 3 -70 c3 -58 8 -73 26 -87z m-824 73 c-21 -49
-21 -52 -4 -71 18 -20 17 -20 -31 -20 l-49 0 27 23 c14 12 36 46 49 75 12 29
23 51 25 49 3 -2 -5 -27 -17 -56z m954 14 c-3 -9 -8 -14 -10 -11 -3 3 -2 9 2
15 9 16 15 13 8 -4z m549 -367 c41 -17 54 -19 69 -10 18 11 19 9 19 -45 l-1
-58 -19 37 c-49 91 -218 119 -228 37 -4 -36 11 -45 127 -78 56 -15 110 -36
120 -45 67 -61 1 -166 -103 -166 -20 0 -59 9 -88 20 -65 25 -63 25 -88 -2
l-20 -22 0 80 c1 78 1 79 17 49 25 -48 45 -66 98 -91 62 -29 104 -30 139 -3
55 43 27 78 -89 110 -136 37 -165 58 -165 117 1 35 19 58 61 76 48 21 92 19
151 -6z m-2135 -114 l62 -126 50 98 c27 55 50 96 50 91 1 -11 -128 -267 -135
-267 -3 0 -36 64 -74 143 l-70 142 0 -121 c0 -129 6 -145 55 -157 11 -2 -16
-5 -60 -5 -65 0 -75 2 -53 10 38 13 49 61 43 183 -5 102 -12 121 -48 128 -12
2 10 5 49 6 l70 1 61 -126z m296 119 c-43 -8 -53 -39 -53 -158 0 -119 10 -150
53 -158 12 -2 -27 -4 -88 -4 -60 0 -99 2 -85 4 49 9 51 17 49 164 0 76 2 143
6 148 3 6 35 10 73 10 37 -1 57 -4 45 -6z m407 -53 c0 -33 -2 -60 -5 -60 -3 0
-11 15 -18 33 -24 55 -51 71 -128 75 l-70 4 3 -78 c3 -78 3 -79 28 -76 29 3
70 45 70 73 0 10 5 19 10 19 6 0 10 -42 10 -106 0 -67 -4 -103 -10 -99 -5 3
-10 14 -10 24 0 32 -39 71 -71 71 l-30 0 3 -67 3 -68 68 0 c66 0 70 1 103 37
19 21 34 47 34 58 0 11 5 20 10 20 6 0 10 -28 10 -65 l0 -65 -182 1 c-101 1
-174 4 -163 6 42 11 45 20 45 158 0 138 -3 147 -45 158 -11 2 60 5 158 6 l177
1 0 -60z m420 42 c39 -19 61 -63 44 -90 -21 -32 -60 -52 -119 -60 l-60 -7 50
-22 c35 -15 61 -36 87 -72 26 -34 46 -51 65 -54 15 -2 -1 -5 -37 -6 l-65 -1
-55 78 c-50 70 -58 77 -92 80 l-38 3 0 -64 c0 -68 7 -82 50 -90 14 -2 -24 -4
-85 -5 -60 0 -99 3 -85 7 40 11 50 45 49 158 -1 111 -12 144 -49 154 -14 4 49
7 140 8 138 1 171 -2 200 -17z m315 11 c-53 -8 -55 -14 -55 -169 l0 -144 55 0
c76 0 108 19 137 79 12 28 26 50 31 51 4 0 7 -31 7 -70 l0 -70 -187 1 c-104 1
-178 4 -166 6 43 8 53 39 53 158 0 119 -10 150 -53 158 -12 2 30 4 93 4 63 0
102 -2 85 -4z m401 -3 c-16 -5 -33 -15 -37 -22 -5 -7 -9 -67 -9 -134 0 -129 6
-149 50 -157 14 -2 -24 -5 -85 -5 -77 0 -101 2 -81 8 16 5 33 15 37 22 11 17
11 249 0 266 -4 7 -21 17 -37 22 -21 6 3 8 81 8 78 0 102 -2 81 -8z"/>
<path d="M1450 1604 l0 -76 76 4 c65 3 79 7 95 27 26 32 24 67 -6 96 -21 22
-33 25 -95 25 l-70 0 0 -76z"/>
</g>
</svg>
